Coordinates
version=1
nRows=11
nColumns=40
inDegrees=yes

Units are S.I. units (second, meters, Newtons, ...)
Angles are in degrees.

endheader
time	pelvis_tilt	pelvis_list	pelvis_rotation	pelvis_tx	pelvis_ty	pelvis_tz	hip_flexion_r	hip_adduction_r	hip_rotation_r	knee_angle_r	knee_angle_r_beta	ankle_angle_r	subtalar_angle_r	mtp_angle_r	hip_flexion_l	hip_adduction_l	hip_rotation_l	knee_angle_l	knee_angle_l_beta	ankle_angle_l	subtalar_angle_l	mtp_angle_l	lumbar_extension	lumbar_bending	lumbar_rotation	arm_flex_r	arm_add_r	arm_rot_r	elbow_flex_r	pro_sup_r	wrist_flex_r	wrist_dev_r	arm_flex_l	arm_add_l	arm_rot_l	elbow_flex_l	pro_sup_l	wrist_flex_l	wrist_dev_l
     42.95250000	     -5.95770044	     -4.20719877	      0.87010481	      0.93874069	      0.92493829	      0.46660264	      2.06374878	     -1.24733769	    -15.29119248	     23.97694799	     23.97694799	     16.43251750	      7.32508855	     -7.44654136	     26.12890118	     -5.19364191	     -1.72650998	     24.35635781	     24.35635781	      7.57545064	    -13.09158402	      5.30918994	     -7.97479352	      6.98085510	      4.37123120	     24.80061492	    -18.95790971	     -3.83489608	     78.73838013	     43.08323140	      0.00000000	      0.00000000	     -8.17804794	     -8.68952604	     -6.28388967	     39.81045836	     43.10192027	      0.00000000	      0.00000000
     42.96485714	     -6.05412877	     -4.28196183	      0.56372725	      0.93885444	      0.92543418	      0.46435657	      3.12837864	     -1.67571460	    -14.56603386	     26.31779097	     26.31779097	     15.01928722	      5.99699124	    -10.56329259	     25.68991848	     -5.27670836	     -2.15449089	     24.30258182	     24.30258182	      8.08812654	    -12.79102895	      5.17256993	     -7.95494520	      6.99483205	      4.16146725	     23.57247989	    -18.72195693	     -4.42107183	     76.03107265	     43.30960583	      0.00000000	      0.00000000	     -8.19597339	     -9.06179847	     -6.17221802	     41.75705135	     43.26606299	      0.00000000	      0.00000000
     42.97721429	     -6.06607783	     -4.16561766	      0.35854857	      0.93884395	      0.92589117	      0.46200274	      4.41085878	     -2.45713317	    -14.22147182	     29.32776500	     29.32776500	     14.18399154	      5.06470904	    -11.38827280	     25.21508745	     -5.11836378	     -2.55612280	     24.33042117	     24.33042117	      8.47131074	    -12.56765474	      4.92712245	     -8.09696136	      6.77718419	      4.04298256	     21.77598407	    -18.83447836	     -4.30486788	     74.70637296	     43.36161640	      0.00000000	      0.00000000	     -7.52003202	     -9.40002215	     -6.31304571	     42.42670515	     43.31837463	      0.00000000	      0.00000000
     42.98957143	     -6.24155106	     -4.14660251	      0.07556460	      0.93853148	      0.92595518	      0.45994901	      6.14117987	     -3.05909908	    -13.46214728	     32.66814062	     32.66814062	     13.05013246	      3.59157489	    -12.41954921	     24.91353863	     -5.09704210	     -2.96792662	     24.31249760	     24.31249760	      8.86609162	    -12.28436879	      4.62715322	     -8.10769320	      6.70091129	      4.12198975	     19.99981973	    -19.00763374	     -4.45024541	     72.88871488	     43.44349755	      0.00000000	      0.00000000	     -6.96262295	     -9.74577711	     -6.47811943	     43.47815359	     43.37991479	      0.00000000	      0.00000000
     43.00192857	     -6.29524802	     -4.27387644	     -0.15702341	      0.93815884	      0.92607905	      0.45821169	      7.76198114	     -3.26931103	    -12.39155070	     35.80711534	     35.80711534	     10.86167818	      0.78043171	    -15.28177163	     24.56631299	     -5.27628608	     -3.44881186	     24.42278556	     24.42278556	      9.24622064	    -11.79512914	      4.04795886	     -8.20167752	      6.69572333	      3.77825940	     18.93270552	    -18.31060576	     -5.53676650	     69.44681772	     43.68902205	      0.00000000	      0.00000000	     -7.18821113	    -10.33467933	     -6.48642096	     46.30832551	     43.54767056	      0.00000000	      0.00000000
     43.01428571	     -6.27719169	     -4.15037821	     -0.33913155	      0.93770082	      0.92608869	      0.45629238	      9.58209484	     -3.98801601	    -11.79206096	     39.55686569	     39.55686569	      9.46024898	     -0.60026450	    -15.67127120	     24.11221159	     -5.10838571	     -3.75042396	     24.47774756	     24.47774756	      9.65216904	    -11.64901032	      3.77576056	     -8.44906012	      6.50288624	      3.54816183	     17.16522007	    -18.28867019	     -5.43972481	     68.13591687	     43.73640725	      0.00000000	      0.00000000	     -6.45664221	    -10.83982692	     -6.69129464	     47.01276041	     43.60256797	      0.00000000	      0.00000000
     43.02664286	     -6.40192395	     -4.26670723	     -0.57549492	      0.93700683	      0.92590796	      0.45492096	     11.66058373	     -4.07820890	    -10.60477170	     43.18474468	     43.18474468	      7.53957952	     -3.40129628	    -16.01788869	     23.87189889	     -5.28381654	     -4.14689454	     24.59394095	     24.59394095	     10.01558566	    -11.26042565	      3.18509386	     -8.47856278	      6.48593439	      3.39713161	     15.91384366	    -17.84481732	     -6.29041991	     64.68130202	     43.95903756	      0.00000000	      0.00000000	     -6.38407884	    -11.47248341	     -6.73095159	     49.48724032	     43.76770143	      0.00000000	      0.00000000
     43.03900000	     -6.41850318	     -4.13974282	     -0.75232391	      0.93625490	      0.92576299	      0.45335739	     13.71891521	     -4.60033414	     -9.82453459	     46.94687937	     46.94687937	      5.85861194	     -5.04167740	    -15.72167644	     23.48662104	     -5.12302594	     -4.42116878	     24.64977085	     24.64977085	     10.38175827	    -11.16878100	      2.92975997	     -8.68328135	      6.27850295	      3.22723506	     14.09147054	    -17.78958455	     -6.25768194	     63.15606084	     44.01724814	      0.00000000	      0.00000000	     -5.59549951	    -12.03893130	     -6.96880442	     50.31371329	     43.83167304	      0.00000000	      0.00000000
     43.05135714	     -6.46700470	     -4.12813981	     -0.93624235	      0.93542992	      0.92565842	      0.45209953	     15.83057115	     -4.76760012	     -8.83398019	     50.51408140	     50.51408140	      4.14450959	     -7.00902009	    -14.84087430	     23.13901462	     -5.10826619	     -4.66619624	     24.69699679	     24.69699679	     10.76554897	    -11.03368421	      2.62746770	     -8.81854357	      6.17663870	      3.24767209	     12.26811873	    -17.75354938	     -6.41033407	     61.09321588	     44.10321164	      0.00000000	      0.00000000	     -4.78136337	    -12.57903369	     -7.16143251	     51.48649614	     43.89830235	      0.00000000	      0.00000000
     43.06371429	     -6.34461847	     -4.25437864	     -1.01147149	      0.93463676	      0.92584484	      0.45098020	     17.73231983	     -4.67461523	     -7.93365635	     53.93860225	     53.93860225	      3.25151800	     -8.35807485	    -11.55882617	     22.66444459	     -5.26457552	     -4.95369093	     24.82646134	     24.82646134	     11.15420288	    -10.63338742	      2.01442238	     -9.11625600	      6.20863687	      2.90228626	     11.49899900	    -16.98160414	     -7.60306531	     56.64482478	     44.36537777	      0.00000000	      0.00000000	     -4.51599826	    -13.46144500	     -6.88012415	     53.95508677	     44.03423017	      0.00000000	      0.00000000
     43.07607143	     -6.31357853	     -4.24240287	     -1.10559190	      0.93374294	      0.92600041	      0.44988731	     19.70224026	     -4.73721248	     -7.14670193	     57.07329185	     57.07329185	      2.25494930	     -9.33321903	     -9.28931130	     22.19875730	     -5.20917369	     -5.06593463	     24.76810764	     24.76810764	     11.45469169	    -10.57118127	      1.74883995	     -9.32955696	      6.11474998	      2.79588803	      9.93239324	    -16.73814997	     -7.81421880	     53.98203032	     44.50301862	      0.00000000	      0.00000000	     -3.65280515	    -14.10871084	     -7.03502144	     55.23734021	     44.16978849	      0.00000000	      0.00000000
